<?xml version="1.0" encoding="utf-8"?>

<!DOCTYPE svg PUBLIC "-//W3C//DTD SVG 1.1//EN" "http://www.w3.org/Graphics/SVG/1.1/DTD/svg11.dtd">
<svg version="1.1" id="Layer_1" xmlns="http://www.w3.org/2000/svg" xmlns:xlink="http://www.w3.org/1999/xlink" x="0px" y="0px"
	 viewBox="0 0 2600.828 1565.694" enable-background="new 0 0 2600.828 1565.694" xml:space="preserve">
<g>
	<path fill-rule="evenodd" clip-rule="evenodd" fill="#ECF3F3" d="M2405.579,1373.26c32.747,38.362,72.568,91.63,174.835,143.718
		c-43.9,7.979-68.85,8.561-111.458-8.598c-64.758-27.066-139.236-72.828-211.278-77.451c-87.041,0-111.363,10.8-211.201,32.563
		c-180.391,48.934-151.925,0.433-401.327,73.571c-42.464,7.368-24.48,7.836-67.637,7.836c-12.421,0-21.718-0.726-34.616-7.836
		l-3.348-3.729c1.03-5.89,0.283-3.412,3.348-11.031c24.345-25.443,68.313-42.007,84.526-75.169v-7.151l-2.51-6.088
		c-5.233-5.607-3.099-3.507-9.359-9.206c-176.612-90.085-299.778,127.21-495.896,127.21c-21.173-3.474-7.271-0.323-40.627-11.565
		c-39.035-26.193-31.609-23.276-67.56-53.485c-50.043-40.032-60.65-41.219-97.992-48.159
		c-57.442-5.601-64.745,13.086-167.378,13.086c-133.115-6.696-174.908-23.404-266.056,3.803
		c-85.131,25.548-173.426,73.524-235.699,84.755c-37.074,5.252-6.271,6.085-138.62,6.085L20.437,12.322
		c6.833,1.687,4.455,0.529,16.053,6.924c65.093,29.582,42.572,36.473,187.541,25.563c189.43,0,317.732,189.33,683.512,99.285
		c94.266-21.653,154.794-42.999,207.017-37.126c82.181,36.423,45.403,54.377,161.367,38.041c13.177-1.584,9.455-1.228,26.172,0.836
		c20.786,9.241,12.497,1.764,56.606,30.966c15.497,9.056,7.421,2.86,18.563,10.118c84.739,24.566,199.308-53.507,316.879-41.92
		c52.859,4.367,112.655,19.681,137.707,28.681c35.587,11.594,45.152,24.217,54.094,32.487
		c41.954,67.702-6.067,109.718,77.755,186.931c52.302,43.394,75.671,43.844,110.62,48.159c16.103,0,36.796,0.885,58.28-4.565
		c-27.26,111.049-67.027,193.261-97.156,311.552c0,37.315,6.17,76.296,27.084,107.198c18.279,13.483,123.367,54.252,177.347,170.574
		c32.992,62.658,66.935,173.12,71.059,186.019C2316.986,1230.972,2352.771,1302.665,2405.579,1373.26z"/>
	<path fill-rule="evenodd" clip-rule="evenodd" fill="#C4CBCB" d="M2058.331,1108.186l89.471,36.52
		c16.31,66.285,37.632,110.654,39.789,160.532l-5.858,9.206c-36.55-9.428-53.275-28.844-77.755-51.129
		C2069.814,1208.64,2072.917,1216.07,2058.331,1108.186z"/>
	<path fill-rule="evenodd" clip-rule="evenodd" fill="#C4CBCB" d="M2049.011,869.39c6.946,21.48,11.899,26.711,14.379,30.13
		c12.219,23.103,18.166,29.844,20.237,32.561c21.771,39.981,15.343,10.675,116.632,203.288
		c92.284,177.059,69.706,281.297,193.4,338.943c-42.027-128.012-180.268-339.52-201.921-466.986L2049.011,869.39z"/>
	<path fill-rule="evenodd" clip-rule="evenodd" fill="#C4CBCB" d="M1948.447,716.49c0,128.416,34.662,176.906,88.709,324.944
		l44.737-23.13c-43.143-132.746-70.166-137.577-86.049-256.012C1944.997,713.106,1949.641,717.578,1948.447,716.49z"/>
	<path fill="#C4CBCB" d="M1917.184,505.676c-3.465,31.415-4.035,13.179-5.86,35.607c13.585,51.909,3.341,17.653,12.631,53.56
		l5.935-1.748c19.48,0,21.403,4.392,47.246,1.748c-19.073-73.569-8.37-112.694-8.37-197.05
		c-23.627-25.747-2.933-1.827-22.823-27.922c-11.178-17.012-4.914-4.304-16.891-20.998l-6.009-6.085
		C1915.384,397.39,1911.931,420.025,1917.184,505.676z"/>
	<path fill-rule="evenodd" clip-rule="evenodd" fill="#C4CBCB" d="M104.073,1427.665
		c150.724-92.494,237.022-255.787,354.005-187.691c34.257,36.796,44.111,59.176,54.931,84.602
		c31.572,91.492,10.424,78.737-7.609,133.37c-141.277,36.231-226.999,90.841-387.862,90.841
		C104.788,1433.142,112.94,1507.885,104.073,1427.665z"/>
	<path fill-rule="evenodd" clip-rule="evenodd" fill="#C4CBCB" d="M313.592,877.12c21.423,0,8.668-0.912,21.986-0.912
		c7.056,1.282,47.837,2.692,61.702,0.912c1.591,40.442,1.059,21.07,3.348,76.843c-55.906,21.803-98.919,11.56-135.197,15.445
		c56.992-105.853,19.688-38.608,48.996-92.287H313.592z"/>
	<path fill-rule="evenodd" clip-rule="evenodd" fill="#CA3927" d="M20.414,12.289c6.371,6.5,38.866,46.697,53.257,61.247
		c105.444,107.831,125.664,79.698,188.452,144.096c0.912,1.299,27.496,36.191,42.149,54.398
		c25.674,26.646,34.598,27.888,41.389,30.358c40.433,18.046,96.558,14.271,125.002,49.605
		c41.079,48.88,83.377,31.159,134.359,60.636c51.096,26.683,96.787,65.984,164.792,96.699
		c70.84,25.897,138.722,22.027,184.193,52.951c48.365,25.798,78.453,10.276,134.359,35.454
		c-25.64,11.141-121.998,50.262-145.314,61.398c-72.555-33.411-120.011-46.55-123.328-48.008
		c-13.762-1.854-10.046-4.03-32.943-6.998c-34.94-12.036-51.408-2.918-136.109-71.44c-82.674-58.463-163.908-46.251-224.668-91.375
		c-11.362-6.263-56.844-40.159-78.592-49.072c-79.719-39.466-106.325-45.621-190.963-131.772
		c-11.786-8.888-41.167-35.304-57.442-42.835c-22.494-9.733-61.538-24.337-62.538-24.651l-5.022-2.965L20.414,12.289z"/>
	<path fill-rule="evenodd" clip-rule="evenodd" fill="#CA3927" d="M55.929,681.567l19.4,211.735
		c49.758-21.531,72.502-25.711,80.342-27.922c111.823,0,183.275,36.727,250.003,10.88c11.567-3.126,61.46-19.878,62.463-20.237
		c30.012-2.151,4.428-5.177,68.548,0c121.589,23.551,165.901,53.508,264.459,49.071c133.177-8.027,274.976-53.986,398.741-104.688
		c68.856,181.767,66.552,193.079,68.473,223.983c3.519,58.533,3.116,51.025,29.518,99.439
		c18.172,26.539,40.175,68.037,48.997,82.851c45.755,90.842,42.301,134.938,42.301,240.493
		c101.412-42.217,177.958-65.692,235.699-16.206c-27.282-38.281-45.889-80.689-61.626-104.762
		c-22.693-46.201-66.203-86.482-81.177-149.652c10.969-55.255,6.181-81.692,0.912-127.207
		c-3.792-20.11-13.981-89.598-42.301-184.726c67.997-15.853,100.656-36.517,152.924-36.517
		c78.236,7.055,100.854,46.079,163.04,65.963c73.761,19.378,88.045-6.258,189.29,0.759c13.441,2.894,9.016,1.467,19.401,6.239
		c12.726,10.691,13.982,9.336,38.041,61.321l5.096,3.121h6.773c5.746-2.988,29.87-17.419,35.377-20.924l10.195-3.118h7.683
		c28.758,13.289,25.808,19.432,64.138,65.809c5.959-0.611,85.832-4.565,97.156-4.565c-43.933-67.207-92.259-115.025-165.629-145.77
		c-31.51,2.325-38.82,10.134-63.3,7.683l-6.773-3.118c-23.437-21.33-19.533-23.258-43.06-85.287c-4.112-4.953-2.55-3.2-6.847-7.685
		c-5.141-1.868-3.232-0.983-8.37-3.88c-36.886-4.733-48.095,11.045-100.578-0.762c-17.852-4.055-37.102-11.088-52.345-14.683
		c-38.927-15.961-114.13-17.964-158.856-43.594c-28.252-15.865-38.772-25.358-52.419-31.953
		c-58.836-21.779-81.906-9.697-199.409,18.031c-19.806-72.535-35.075-102.66-60.79-194.693
		c-14.714-64.108,2.686-83.211-10.195-153.606c-26.774-94.776-46.225-105.087-67.559-192.334
		c-13.605-2.901-23.828-0.274-38.878-2.206c-67.028-31.492-75.487-39.636-87.874-43.518c-16.342,0-59.303,4.317-72.582,6.998
		c1.635,46.957,2.342,46.863,5.859,72.201c34.045,239.087,73.922,172.121,92.134,334.91c4.534,63.26-0.042,23.947,6.695,114.883
		c-161.842,65.825-202.693,91.523-390.297,91.523c-47.068-2.485-45.165,3.029-103.09-9.357
		c-26.157-5.232-62.154-17.824-87.797-23.204c-121.158-25.907-101,44.766-311.781,13.086
		c-57.658-4.692-123.602-18.277-189.29-24.804H55.929z"/>
	<path fill-rule="evenodd" clip-rule="evenodd" fill="#CA3927" d="M1534.459,905.056l187.614,8.447
		c165.816,130.267,122.932,128.168,369.147,234.937c24.821,11.459,40.401,13.012,96.318,41.161
		c50.064,27.619,54.351,38.285,72.733,59.039c66.806,104.989,48.156,88.285,108.036,138.772
		c10.946,5.88,117.593,78.405,139.381,90.003c69.73,36.212,64.902,34.589,71.059,39.564
		c-104.707-48.234-171.901-36.415-256.012-128.122c-23.6-22.896-42.268-51.321-75.169-81.254
		c-39.085-35.872-64.734-46.274-95.482-62.083c-230.655-106.252-297.057-116.289-348.908-177.572
		c-50.195-59.209-35.046-61.169-127.665-105.524c-39.042-16.941-134.633-54.299-141.052-56.606V905.056z"/>
	<path fill-rule="evenodd" clip-rule="evenodd" fill="#35679A" d="M1515.027,941.462c69.241,38.151,144.407,55.605,222.232,117.85
		c15.231,21.688,1.319-1.492,38.876,51.964c9.29,17.56,6.058,6.694,21.075,30.355c14.759,13.271,14.426,15.337,41.389,32.563
		c39.246,29.272,141.057,73.349,188.375,91.373c87.016,33.817,163.486,46.914,241.71,94.646
		c34.545,25.515,62.836,70.039,95.482,100.121c-94.031-29.153-103.857-34.517-201.157-19.475
		c-74.494,11.194-172.818,37.399-226.342,45.039c-38.289,6.849-102.393,2.465-271.229,47.4c-9.252,2.304-73.497,23.397-121.73,9.965
		l-3.348-2.206l-2.51-4.033l-0.838-4.565l0.838-6.239c15.533-28.943,49.436-34.575,84.449-67.483
		c3.176-6.726,2.205-4.245,4.26-10.88c-9.054-29.624-85.386-155.344-101.34-182.898
		C1525.22,1032.77,1522.69,1028.432,1515.027,941.462z"/>
	<path fill-rule="evenodd" clip-rule="evenodd" fill="#252B6A" d="M1785.398,932.994c84.73,27.092,213.2,29.42,234.025,75.777
		c2.058,11.429-0.906,5.401,3.422,17.272l4.186,2.206l5.858-0.762c21.983-12.597,12.115-13.992,38.953-26.322
		c7.797-0.965,5.394-1.203,18.563,0.759c12.282,5.769,22.525,3.933,68.475,45.802c3.78,6.874,5.403,14.571,14.302,27.92
		c11.771,5.449,3.421,0.787,15.217,6.239c14.747,2.237,25.478,3.729,79.427,3.729c28.498,61.422,25.41,107.728,64.214,169.813
		c24.347,48.703,89.124,128.638,99.666,148.282c-19.151-8.298-21.099-8.491-45.649-25.64
		c-107.255-104.222-104.401-180.094-196.746-210.897c-6.9-5.05-130.623-56.555-138.696-59.722l-1.597-1.674l-3.425-0.685
		c-8.037-5.479,3.185,1.977-69.234-31.802c-8.19-7.462-108.105-52.764-190.126-140.295H1785.398z"/>
	<path fill-rule="evenodd" clip-rule="evenodd" fill="#35679A" d="M1192.314,981.731c22.047,71.836,14.255,71.104,39.638,138.013
		c19.413,38.534,33.067,52.481,46.485,73.569c59.721,89.197,47.846,120.927,53.255,286.37
		c-92.105,65.43-215.717,108.485-299.149,32.563c-49.444-40.452-44.534-64.522-102.177-68.245c-98.318,0-95.491,20.67-206.179,6.085
		c-154.833-27.041-209.275,10.878-358.114,49.682c59.049-38.121,58.738-59.645,209.451-158.858
		c49.057-32.071,90.765-35.616,156.271-61.398c121.784-28.272,185.831-126.96,292.38-147.217
		c21.99-7.992,39.314-7.388,74.332-39.561c35.097-29.99,51.689-58.212,86.123-101.644l8.446-8.444L1192.314,981.731z"/>
	<path fill-rule="evenodd" clip-rule="evenodd" fill="#35679A" d="M32.26,238.754l24.497,369.298
		c57.463-8.835,74.453,2.208,108.187,2.208c60.266,4.167,70.892,8.371,109.861,14.683c133.497,23.385,126.262,10.465,177.346,1.674
		c113.752-29.606,202.176,52.724,439.293,52.724c-71.665-31.258-196.178-60.377-251.753-104.003
		c-14.224-9.535-15.626-14.901-48.996-36.443c-53.168-33.386-96.149-3.883-159.619-48.082
		c-15.936-7.811-40.018-26.029-55.843-34.922c-36.983-19.05,17.615,6.993-63.3-30.204c-92.437-42.464-77.869-44.588-141.13-98.524
		c-33.794-26.818-52.256-48.196-125.002-83.69L32.26,238.754z"/>
	<path fill-rule="evenodd" clip-rule="evenodd" fill="#35679A" d="M164.923,50.33c75.994,38.002,97.039,36.076,146.076,72.963
		c36.05,26.921,44.435,69.274,87.949,103.85c33.104,21.921,66.836,18.198,114.883,40.323c8.782,5.921,6.653,3.633,26.171,24.042
		c11.336,14.968,9.921,11.908,27.085,25.563c12.932,4.557,20.749,9.471,64.137,17.804
		c114.788,22.551,139.931,102.243,245.97,111.001c35.72,8.857,77.437,9.057,117.393,36.443
		c23.154,11.809,34.451,26.963,76.918,45.573c-14.042-61.162-0.348-52.018-24.575-106.056
		c-51.863-82.043-38.169-64.247-59.952-298.543c-141.949,32.607-158.01,42.682-313.454,42.682
		c-65.816-7.703-73.263-5.504-217.06-54.247c-41.294-15.576-24.453-10.751-52.42-20.39c-1-0.335-30.536-10.092-53.257-20.084
		c-124.309-41.902-62.486-21.837-179.095-21.837L164.923,50.33z"/>
	<path fill-rule="evenodd" clip-rule="evenodd" fill="#35679A" d="M1313.048,149.594c7.478,17.938,65.593,181.206,65.96,182.216
		c19.653,165.907,15.316,135.401,21.075,173.846c105.77-64.734,72.236-44.752,132.684-58.888
		c20.479-2.921,13.678-4.006,27.848-5.477c10.242-5.574,32.018-13.62,33.018-13.998c1.002-0.498,82.08-40.29,130.936-62.844
		c26.156-11.26,21.641-5.983,34.616-13.922c17.416-4.913,10.457-5.917,54.17-17.119c51.007-12.309,35.191-1.236,95.406,8.444
		c5.868,2.61,10.927,3.115,18.563,8.674c-24.257-64.603-12.071-88.473-37.202-141.208c-34.631-39.438-95.182-49.443-145.315-59.724
		c-138.673-20.202-157.164,11.422-250.992,28.684c-86.488,21.104-105.709,15.753-174.758-26.476L1313.048,149.594z"/>
	<path fill-rule="evenodd" clip-rule="evenodd" fill="#35679A" d="M1563.247,622.719c32.114-10.79,61.751-34.407,125.838-63.604
		c38.243-14.122,104.916-42.838,141.967-45.8c26.972-3.849,69.116,3.139,83.613,26.325c1.096,13.274,0.447,4.503,2.51,34.92
		l1.674,3.121l2.587,2.282c28.485,10.875,106.12-22.538,127.588-30.966c1-0.746,52.915-33.381,62.538-37.887
		c-46.12,150.299-67.63,184.086-78.668,272.827c-35.922-6.831-39.741-2.819-59.113-22.445
		c-20.588-32.125-14.089-43.89-39.715-57.365c-13.963-3.398-10.196-5.326-24.423-5.326c-15.974-3.727-55.674-3.271-56.68-3.271
		c-39.123-4.387-69.094-30.331-98.83-41.767C1720.793,636.224,1594.835,627.142,1563.247,622.719z"/>
	<path fill-rule="evenodd" clip-rule="evenodd" fill="#C4CBCB" d="M328.786,136.371c16.339,55.022,7.227,82.864,11.108,165.25
		c103.779,25.924,98.755,26.738,137.63,62.081c25.132,19.909,39.712,24.667,59.116,27.845
		c-9.213-44.592-22.516-61.548-48.159-116.251l-2.588-15.598c-40.172-23.7-67.954-7.099-119.143-66.722
		c-12.538-15.179-7.983-11.407-21.075-31.04C335.595,148.404,343.95,159.985,328.786,136.371z"/>
	<path fill-rule="evenodd" clip-rule="evenodd" fill="#21205F" d="M331.312,136.371c-8.125-4.275-67.234-36.906-83.614-45.038
		c-27.716-11.548-71.383-36.67-85.363-42.454c9.919,0,22.223-1.674,32.106-1.674l5.935-1.597h6.772
		c69.487-7.792,99.371,10.909,138.544,22.596c-1.028,10.557-0.264,6.878-3.348,16.13c-1.028,9.718-0.247,5.987-3.423,16.357
		c-3.683,19.255-2.944,15.662-5.935,26.478L331.312,136.371z"/>
	<path fill-rule="evenodd" clip-rule="evenodd" fill="#21205F" d="M587.303,153.307c68.067,13.443,89.492,10.441,158.781,13.239
		c15.513,31.292,29.839,39.39,66.038,104.765c2.056,9.623,1.5,6.274,2.436,14.683l-2.436,5.477l-6.01,2.282
		c-11.469,0-3.687,0.457-27.77-2.282l-4.26,0.762l-1.673,3.118c0,17.534,8.938,22.732,20.237,61.398
		c7.656,18.511,6.772,18.393,6.772,43.214c-4.112,11.494-1.978,7.225-9.358,18.716c-76.967-59.201-128.962-72.99-138.468-77.525
		c-18.969-3.391,0.053-1.253-27.921-5.554c-7.299-1.779-4.203-0.91-13.543-3.805c-36.345-72.442-12.993-86.387-22.823-177.572
		V153.307z"/>
	<path fill-rule="evenodd" clip-rule="evenodd" fill="#991B1E" d="M339.856,297.746c0,53.755-2.588,19.755-2.588,88.254
		c13.09,8.493,107.517,61.387,141.967,81.561c92.515,24.013,11.566,4.582,102.254,28.681l0.76-17.042l-4.184-13.237
		c-17.906-27.494-16.006-18.153-35.531-44.89l-5.098-14.834l-0.76-16.206l-5.858-0.912c-17.003-8.803-4.435,2.597-45.725-22.292
		c-5.212-6.139-0.863-1.756-12.629-10.957C446.37,327.447,418.174,312.719,339.856,297.746z"/>
	<path fill-rule="evenodd" clip-rule="evenodd" fill="#C4CBCB" d="M338.928,387.645c56.793,33.529,83.79,44.883,142.728,79.963
		c42.001,9.965,68.313,22.545,99.818,30.128v8.672c-3.176,8.502-1.807,5.191-6.01,14.532v8.749
		c-25.047-13.807-68.298-10.526-102.177-15.749c-45.679-19.2-27.999-19.827-86.2-46.332c-18.489-12.729-29.726-20.689-48.159-29.596
		C338.928,428.09,338.928,398.677,338.928,387.645z"/>
	<path fill-rule="evenodd" clip-rule="evenodd" fill="#21205F" d="M627.906,565.361c4.2,30.949,5.168,41.356,36.367,84.224
		c33.699,13.934,98.704,22.508,135.12,26.476c-5.924-19.923-1.776-9.464-8.369-31.651c-104.191-40.847-57.543-16.369-128.502-55.006
		l-5.098-2.359C647.67,577.646,650.727,581.418,627.906,565.361z"/>
	<path fill-rule="evenodd" clip-rule="evenodd" fill="#21205F" d="M338.076,437.271c0,71.411-39.639,103.129-39.639,189.29
		c-2.184,0.951-1.161,0.554-4.336,1.674l-3.348-0.912h-3.347c-13.04-4.148-6.25,0.208-22.749-6.085
		c-18.752-5.388-12.149-5.317-30.509-12.477c-20.569-9.456-18.01-7.067-32.029-17.119l-5.098-6.239l-3.348-7.685v-9.357
		c12.741-44.596,38.271-64.033,51.432-89.928v-3.121c-52.981-95.113-57.119-62.096-72.658-147.444
		c61.231,61.725,116.409,83.526,165.629,110.165V437.271z"/>
	<path fill-rule="evenodd" clip-rule="evenodd" fill="#C4CBCB" d="M789.244,416.319c-5.23,25.022-4.262,16.71-4.262,36.443
		c11.121,25.565,10.23,16.312,24.575,40.4l3.424,13.239l-1.751,16.204c29.902,2.692,80.902,15.92,109.861,24.196
		c-14.842-16.184-13.135-13.671-29.595-45.953c-6.174-30.306-5.1-39.602-4.185-54.094
		C838.858,440.755,833.473,439.58,789.244,416.319z"/>
	<path fill-rule="evenodd" clip-rule="evenodd" fill="#991B1E" d="M812.951,521.829c-6.686,37.943-5.99,26.898-7.685,52.726
		c3.02,12.824,9.63,26.314,16.967,37.202c22.059,10.208,23.489,1.668,98.829,37.89c-25.028-50.056-14.186-20.845-29.595-62.615
		l-0.837-9.359l0.837-4.565c9.902-9.019,11.998-5.543,21.988-17.119l2.51-5.324v-7.154c-8.223-1.774-5.152-0.889-13.466-3.88
		c-8.409-0.841-5.131-0.131-14.379-3.118c-8.41-0.841-5.149-0.13-14.304-3.121c-8.315-1.774-5.226-1.062-13.542-3.118
		c-21.889-1.97-15.618-3.825-47.322-7.532V521.829z"/>
	<path fill-rule="evenodd" clip-rule="evenodd" fill="#C4CBCB" d="M519.734,619.601c37.598,7.906,123.358,27.154,123.403,27.163
		c11.423,34.412,11.151,38.746,12.629,74.484c-27.257-12.704-100.622-23.966-137.631-35.076
		C523.289,664.438,525.532,655.925,519.734,619.601z"/>
	<path fill-rule="evenodd" clip-rule="evenodd" fill="#C4CBCB" d="M299.213,628.219c8.769,0.902,57.479,13.714,103.927,8.447
		c-3.036,33.531-0.591,33.08-2.511,73.569c-22.567,8.97-86.25,9.891-114.959,0c6.695-15.62,7.661-17.549,19.477-41.008
		c2.055-12.424,1.483-7.809,2.511-20.237l-2.511-10.803L299.213,628.219z"/>
	<path fill-rule="evenodd" clip-rule="evenodd" fill="#991B1E" d="M281.495,710.244c68.272,0,16.026,2.359,115.719,2.359
		c-23.035,52.048-44.578,89.529-126.751,149.652c18.941-66.951,4.192-61.318-1.597-120.056l3.347-14.683L281.495,710.244z"/>
	<path fill-rule="evenodd" clip-rule="evenodd" fill="#991B1E" d="M517.208,686.172c64.599,17.344,1.882-3.406,137.782,33.325
		c9.19,29.236,21.08,38.022,38.725,52.724c89.456,70.458,144.215,74.208,190.203,121.122c-8.315,0.841-5.418,0.512-12.705,1.444
		c-25.185,7.104-35.819,5.772-48.083,9.359c-18.375,0-1.412,1.674-38.117,1.674l-6.695-7
		c-60.88-32.707-116.664-22.178-167.303-46.485c-6.881-7.293-32.26-44.866-62.538-72.963
		c-27.851-31.192-32.943-50.153-32.943-79.199l2.586-14H517.208z"/>
	<path fill-rule="evenodd" clip-rule="evenodd" fill="#52120F" d="M1476.135,1413.848c67.216,128.999,20.706,44.852,62.538,121.73
		c7.111-19.825,7.499-18.961,48.995-48.006c27.738-16.921,29.129-18.532,37.205-30.358c2.056-6.728,1.484-4.091,2.51-11.563
		c-3.025-12.379-2.625-13.611-12.628-25.565C1589.129,1399.075,1538.236,1388.098,1476.135,1413.848z"/>
	<path fill-rule="evenodd" clip-rule="evenodd" fill="#991B1E" d="M1478.691,1186.496c-37.593-154.256,5.237-37.348-73.495-257.533
		c-27.781-108.276-37.71-186.731-94.646-233.416c-46.647-47.191-42.914-42.425-55.766-58.888
		c-21.781-38.117-17.062-63.638-38.801-99.209c-32.343-45.388-61.582-60.11-103.166-111.003
		c-51.704-115.323-44.753-97.838-48.083-116.404c-7.981-45.307-11.336-47.164-21.074-105.296
		c10.833,27.908,46.297,140.518,108.872,198.496c27.369,30.155,23.101,23.113,53.332,44.888
		c66.967,53.149,74.517,65.777,139.38,154.368c1.988,6.913,26.636,90.263,27.01,91.526c19.06-4.804,4.054-1.322,26.172-7.836
		c26.075-7.559,23.298-5.03,38.879-10.118c26.698,39.568,45.945,80.604,54.929,178.638c-2.602,0.3-50.928,10.289-52.42,10.652
		C1472.113,987.781,1511.488,1074.613,1478.691,1186.496z"/>
	<path fill-rule="evenodd" clip-rule="evenodd" fill="#C4CBCB" d="M1024.166,173.683c-7.29-2.898-4.409-1.977-12.629-4.033
		c-4.205,2.056-2.643,1.136-6.847,4.033l-3.348,4.565c-6.584,36.561-0.791,56.291,24.499,113.971
		c27.561,58.669,10.906,37.247,42.226,93.808c14.176,20.191,21.45,16.85,37.204,35.833c6.166,2.897,3.858,2.029,10.118,3.805
		c-30.195-58.35-37.369-74.622-47.322-106.97C1050.321,244.502,1050.493,193.72,1024.166,173.683z"/>
	<path fill-rule="evenodd" clip-rule="evenodd" fill="#C4CBCB" d="M807.04,904.166c13.738,0,58.767-3.88,83.613-3.88
		c73.321,38.79,159.045,136.214,218.809,187.085c-26.174,9.197-38.938,29.86-69.31,45.8l-5.022,0.608
		c-40.895-10.482-88.357-57.095-128.424-69.842h-5.098c-75.458,39.677-40.123,19.842-87.037,50.518
		C776.987,1029.545,853.312,966.342,807.04,904.166z"/>
	<path fill-rule="evenodd" clip-rule="evenodd" fill="#35679A" d="M104.925,1463.477L75.329,970.853
		c128.255,0,187.558,0.972,245.894-4.565c57.442-3.71,121.58-32.717,185.867-32.717c76.658,0,123.579,27.508,228.167,32.717
		c69.638-5.713,65.703-15.445,113.133-22.445c63.29-5.664,39.726,2.613,83.69-6.239c51.759-10.287,83.385-28.375,120.741-36.594
		c-35.867,34.225-135.704,101.825-156.271,112.371c-55.036,33.375-198.762,90.555-241.634,103.395
		c-26.119,9.25-199.223,53.927-315.965,149.65c-32.546,26.691-42.275,39.214-59.951,51.888
		c-19.288,19.939-144.082,118.558-164.792,137.252L104.925,1463.477z"/>
	<path fill-rule="evenodd" clip-rule="evenodd" fill="#21205F" d="M503.643,930.612c5.725,1.146,98.303,15.957,113.285,19.327
		c27.05,65.419-47.834,112.342,21.988,172.246c-8.498,2.442-120.625,42.867-127.665,45.726c0-91.905,86.426-146.976-6.695-237.298
		H503.643z"/>
	<path fill-rule="evenodd" clip-rule="evenodd" fill="#CA3927" d="M107.413,1551.891c74.375-57.954,166.952-167.351,355.678-294.814
		c99.748-56.917,162.274-45.882,265.371-93.047c45.562-20.554,65.501-39.784,94.645-56.604
		c63.345-52.512,156.158-69.561,213.711-108.721c56.312-40.607,77.975-100.023,114.046-137.173l31.269,76.081
		c-87.821,115.022-106.546,158.113-200.246,175.898c-45.57,9.115-19.343,5.491-49.833,13.239
		c-128.561,75.867-103.904,80.028-198.572,122.566c-149.365,60.489-182.155,35.278-354.005,201.691
		c-46.243,42.847-3.32,4.725-82.852,77.528C240.651,1543.433,141.097,1551.891,107.413,1551.891z"/>
	<path fill-rule="evenodd" clip-rule="evenodd" fill="#991B1E" d="M107.413,1551.891c20.361-15.866,170.167-152.963,171.562-154.368
		c92.72-73.57,50.378-50.121,184.116-140.446l63.452,72.81c-87.241,55.822-103.725,83.136-229.916,198.65
		C239.48,1543.745,138.888,1551.891,107.413,1551.891z"/>
	<path fill-rule="evenodd" clip-rule="evenodd" fill="#21205F" d="M966.673,1454.118c0,0-38.508-259.993-41.313-279.216
		c49.242-18.879,82.986-35.974,97.993-41.769c54.179,42.189,59.339,50.039,81.027,100.732c35.723,127.777-2.4,207.616,6.77,306.456
		l5.934,13.086C1064.534,1537.358,1025.091,1518.865,966.673,1454.118z"/>
	<path fill-rule="evenodd" clip-rule="evenodd" fill="#991B1E" d="M1019.945,1003.422c35.115,32.313,23.755,19.474,65.049,57.518
		c-53.95,41.497-24.514,18.37-55.768,38.802c-15.159,4.938-3.334,2.091-19.401,7.683c-16.38,5.707-5.63,1.827-20.314,7
		c-3.694-2.532-61.189-39.62-64.212-41.92c-7.176-3.773-14.434-6.635-18.641-8.598c-1.816,0-3.197,0-5.021,0
		c16.1-7.055,109.636-56.168,118.307-59.724V1003.422z"/>
	<path fill-rule="evenodd" clip-rule="evenodd" fill="#21205F" d="M1927.342,348.12c-24.591-125.718-27.719-152.129-91.222-175.213
		c21.713,86.882,32.959,102.079,35.454,161.215C1903.323,341.265,1866.11,333.678,1927.342,348.12z"/>
	<path fill-rule="evenodd" clip-rule="evenodd" fill="#21205F" d="M1914.674,542.781c0,24.101-3.045,29.826,21.985,86.049
		c19.911,51.475,20.239,54.436,20.239,94.644c-5.143-5.703-3.215-3.567-8.447-9.357c-6.259-3.644-4.124-2.221-9.357-6.239
		c-12.679-4.774-20.641-9.053-33.78-9.053c-7.186-2.053-4.688-1.307-10.957-3.271c-15.085,0-7.217-0.98-20.16-2.967
		c-15.6-27.745-11.333-17.474-18.716-45.041c-3.167-85.612,11.718-81.386-7.532-136.413
		C1885.619,511.133,1902.095,522.948,1914.674,542.781z"/>
	<path fill="#21205F" d="M1996.527,1050.083c6.558,13.925,16.684,19.786,29.673,27.922c8.314,5.7,5.033,3.964,14.379,7.609
		c2.922-17.526,3.749-17.047-0.912-37.89c-15.813-26.83-17.168-24.758-22.826-46.562c-13.414-10.664-21.656-17.984-49.833-27.161
		C1969.689,1003.211,1979.901,1025.358,1996.527,1050.083z"/>
	<path fill-rule="evenodd" clip-rule="evenodd" fill="#21205F" d="M2108.111,1011.151c6.445,2.644,12.964,4.33,33.018,22.598
		c15.68,14.421,17.449,16.46,25.41,29.594c9.081,32.104,27.044,39.939,50.595,85.136l3.425,16.357l-0.915,16.281
		c-8.024-4.743-43.232-19.814-47.247-21.683c-7.724-43.85-41.396-105.18-64.286-147.521V1011.151z"/>
	<path fill-rule="evenodd" clip-rule="evenodd" fill="#21205F" d="M1705.983,1037.452c62.211,47.09,87.678,100.361,110.62,133.599
		c-10.848,115.209-3.216,173.038-88.709,263.774C1730.833,1243.014,1690.37,1213.841,1705.983,1037.452z"/>
	<path fill-rule="evenodd" clip-rule="evenodd" fill="#CA3927" d="M1423.762,614.996c-7.924-44.29-9.512-26.462-18.565-72.961
		c4.112-3.833,2.359-2.583,7.685-5.477c10.19-9.72,53.239-26.036,59.952-27.237c20.44-10.593,57.552-17.69,77.755-24.651
		c96.181-18.471,240.353-128.038,315.964-117.242c6.83,4.099,1.106,1.079,12.631,5.479l2.51,2.433l4.26,1.447
		c6.654,4.959,19.339,9.428,24.423,10.88l5.096,8.595c1.871,14.796,2.977,13.525-2.51,44.128
		c10.154-2.375,89.452-18.408,90.46-18.563c32.841,15.125,54.919,22.005,128.35,17.193
		c-70.938,41.287-134.048,56.084-214.549,65.735c-1.885-25.47-2.075-22.869-5.935-32.563l-6.773-6.847
		c-14.938-5.21-8.641-1.864-21.073-5.63c-11.773-6.095-8.913-2.204-18.64-7.759l-5.099-0.685l-4.184-2.282
		c-13.557-1.94-7.21-1.597-26.172-1.597c-29.978,9.392-26.682,0.784-190.128,72.048
		C1629.271,524.31,1441.614,605.853,1423.762,614.996z"/>
	<path fill="#991B1E" d="M1914.734,439.639c-1.505,15.205-1.44,9.493-6.011,27.996l5.175,7.685
		c3.829,24.256-0.661,8.477,3.271,30.279c16.145,0,40.708-5.918,49.072-8.521c0-64.933,0.762-19.835,0.762-66.799
		C1958.288,431.524,1914.734,439.639,1914.734,439.639z"/>
	<path fill-rule="evenodd" clip-rule="evenodd" fill="#991B1E" d="M1951.862,774.737c20.373,46.324,16.64,62.785,43.06,86.81
		c9.625,1.925,11.928,3.803,25.336,3.803c20.293,48.195,5.893,10.407,34.616,77.604c-15.537,7.294-16.906,13.197-40.551,22.596
		h-5.858C1955.15,855.597,1953.994,808.853,1951.862,774.737z"/>
	<path fill-rule="evenodd" clip-rule="evenodd" fill="#991B1E" d="M2047.307,869.39l141.052,135.654l-55.691,2.282
		c-28.26-31.343-67.003-90.833-84.525-137.936H2047.307z"/>
	<polygon fill-rule="evenodd" clip-rule="evenodd" fill="#991B1E" points="2064.196,1137.606 2154.58,1174.049 2180.751,1261.848 
		2076.901,1213.687 	"/>
</g>
</svg>
