<svg id="Layer_1" enable-background="new 0 0 512 512" height="64" viewBox="0 0 512 512" width="64" xmlns="http://www.w3.org/2000/svg"><g><circle cx="256" cy="223.867" fill="#f5fafa" r="223.867"/><path d="m256 447.733c123.638 0 223.867-100.229 223.867-223.867s-100.229-223.866-223.867-223.866z" fill="#e1ebf0"/><path d="m191.733 351.333h-96.4c-8.284 0-15-6.716-15-15v-33.2c0-34.849 28.351-63.2 63.2-63.2s63.2 28.352 63.2 63.2v33.2c0 8.285-6.715 15-15 15z" fill="#324b5f"/><path d="m416.667 351.333h-96.4c-8.284 0-15-6.716-15-15v-33.2c0-34.849 28.352-63.2 63.2-63.2s63.2 28.352 63.2 63.2v33.2c0 8.285-6.716 15-15 15z" fill="#ffec29"/><circle cx="143.533" cy="200.3" fill="#ffdcdc" r="39.633"/><circle cx="368.467" cy="200.3" fill="#8e4f40" r="39.633"/><path d="m368.467 160.667c21.854 0 39.633 17.78 39.633 39.633s-17.78 39.633-39.633 39.633z" fill="#784033"/><path d="m143.533 160.667c21.854 0 39.633 17.78 39.633 39.633s-17.78 39.633-39.633 39.633z" fill="#ffc8c8"/><path d="m191.733 351.333c8.284 0 15-6.716 15-15v-33.2c0-34.849-28.352-63.2-63.2-63.2v111.4z" fill="#1e323c"/><path d="m320.267 351.333h-128.534c-8.284 0-15-6.716-15-15v-57.3c0-43.708 35.559-79.267 79.267-79.267s79.267 35.559 79.267 79.267v57.3c0 8.285-6.716 15-15 15z" fill="#5abeff"/><circle cx="259.032" cy="156.117" fill="#f1b986" r="43.65"/><path d="m256 112.467c24.069 0 43.65 19.581 43.65 43.65s-19.581 43.65-43.65 43.65z" fill="#e2a570"/><path d="m320.267 351.333c8.284 0 15-6.716 15-15v-57.3c0-43.708-35.559-79.267-79.267-79.267v151.567z" fill="#469be6"/><path d="m416.667 351.333c8.284 0 15-6.716 15-15v-33.2c0-34.849-28.351-63.2-63.2-63.2v111.4z" fill="#ffcb00"/><path d="m368.467 512h128.533c4.822 0 9.35-2.318 12.168-6.229 2.819-3.912 3.586-8.94 2.062-13.514l-14.485-43.457 14.486-43.456c1.524-4.574.757-9.603-2.062-13.514-2.819-3.912-7.347-6.229-12.168-6.229h-128.534c-8.284 0-15 6.716-15 15v96.399c0 8.284 6.716 15 15 15z" fill="#e20059"/><path d="m143.533 512h-128.533c-4.822 0-9.35-2.318-12.168-6.229-2.819-3.912-3.586-8.94-2.062-13.514l14.485-43.457-14.485-43.456c-1.524-4.574-.757-9.603 2.062-13.514 2.818-3.912 7.346-6.23 12.168-6.23h128.533c8.284 0 15 6.716 15 15v96.4c0 8.284-6.716 15-15 15z" fill="#ff405c"/><path d="m416.667 447.733h-321.334c-8.284 0-15-6.716-15-15v-96.4c0-8.284 6.716-15 15-15h321.333c8.284 0 15 6.716 15 15v96.4c.001 8.285-6.715 15-14.999 15z" fill="#ff7038"/><path d="m256 447.733h160.667c8.284 0 15-6.716 15-15v-96.4c0-8.284-6.716-15-15-15h-160.667z" fill="#ff405c"/></g></svg>