<svg viewBox="0 0 512 512" xmlns="http://www.w3.org/2000/svg"><path d="M202.24 74C166.11 56.75 115.61 48.3 48 48l0 0c-6.38-.09-12.63 1.77-17.92 5.32l0-.01c-8.83 5.96-14.1 15.92-14.09 26.56v286.1c0 19.34 13.76 33.93 32 33.93 71.07 0 142.36 6.64 185.06 47l-.01-.01c1.64 1.56 4.24 1.49 5.81-.16 .72-.77 1.13-1.79 1.12-2.85V106.77l-.01 0c0-4.61-1.99-8.98-5.46-12.01l-.01-.01c-9.79-8.37-20.65-15.37-32.31-20.83Zm279.68-20.7l0 0c-5.3-3.55-11.55-5.4-17.92-5.31 -67.61.3-118.11 8.71-154.24 26l-.01 0c-11.66 5.44-22.53 12.43-32.31 20.78l0-.01c-3.47 3.02-5.46 7.4-5.45 12v337.13l-.01 0c-.01 2.17 1.75 3.93 3.92 3.93 1.02 0 2.01-.41 2.75-1.13 25.67-25.5 70.72-46.82 185.36-46.81l-.01-.001c17.67 0 32-14.33 32-32v-288l0-.01c.02-10.67-5.28-20.65-14.13-26.61Z"/></svg>