<svg viewBox="0 0 512 512" xmlns="http://www.w3.org/2000/svg"><path d="M160 136v104h153.37l-52.68-52.69 -.01-.01c-6.09-6.41-5.83-16.54.57-22.62 6.17-5.87 15.86-5.87 22.04 0l80 80 0 0c6.24 6.24 6.24 16.37-.01 22.62l-80 80 -.01 0c-6.41 6.08-16.54 5.82-22.62-.58 -5.87-6.18-5.87-15.87 0-22.05l52.68-52.69H159.96v104l-.01-.01c.03 30.91 25.08 55.96 55.99 56h208l0-.01c30.91-.04 55.96-25.09 56-56v-240l0 0c-.04-30.92-25.09-55.97-56-56.01h-208l0-.001c-30.92.03-55.97 25.08-56 56ZM48 240l-.01 0c-8.84 0-16 7.16-16 16 0 8.83 7.16 16 16 15.99h112v-32Z"/></svg>