<svg viewBox="0 0 512 512" xmlns="http://www.w3.org/2000/svg"><g><path d="M261.56 101.28l0 0c-3.1-2.96-7.97-2.96-11.06-.01L66.4 277.14l-.01 0c-1.58 1.51-2.48 3.6-2.47 5.79l-.03 165.06 0 0c0 17.67 14.32 31.99 32 31.99 0 0 0 0 0 0h96.1 -.01c8.83 0 16-7.17 16-16v-136l0 0c-.01-4.42 3.58-8.01 7.99-8.01h80 -.01c4.41-.01 8 3.58 8 7.99v136l0 0c0 8.83 7.16 15.99 16 15.99h96.06l-.01-.001c17.67 0 32-14.33 32-32V282.88l-.01 0c0-2.19-.89-4.28-2.47-5.8Z"/><path d="M490.91 244.15l-74.8-71.56V64v0c0-8.84-7.17-16-16-16h-48 -.01c-8.84 0-16 7.16-16 16 0 0 0 0 0 0v32l-57.92-55.38c-5.42-5.49-13.48-8.63-22.19-8.63 -8.68 0-16.72 3.14-22.14 8.63l-212.7 203.5c-6.22 6-7 15.87-1.34 22.37l0 0c5.78 6.67 15.89 7.4 22.56 1.61 .2-.19.41-.37.61-.56l207.5-198.28 0-.01c3.09-2.96 7.96-2.96 11.06 0l207.52 198.28 0 0c6.36 6.1 16.46 5.9 22.59-.45 6.14-6.36 5.63-16.86-.76-22.97Z"/></g></svg>