<svg viewBox="0 0 512 512" xmlns="http://www.w3.org/2000/svg"><path d="M160 256l0 0c-.01-8.84 7.16-16.01 15.99-16.01h144v-104c0-32-33.79-56-64-56h-152l0-.001c-30.92.03-55.97 25.08-56 56v240l-.01-.01c.03 30.91 25.08 55.96 55.99 56h160l0-.01c30.91-.04 55.96-25.09 56-56v-104h-144 -.01c-8.84-.01-16-7.17-16-16.01 0 0 0 0 0 0Zm299.31-11.31l-80-80 -.01-.01c-6.41-6.09-16.54-5.83-22.62.57 -5.87 6.17-5.87 15.86 0 22.04l52.68 52.69h-89.37v32h89.37l-52.68 52.69 0-.01c-6.41 6.08-6.67 16.21-.58 22.62 6.08 6.4 16.21 6.66 22.62.57 .19-.19.39-.39.57-.58l80-80 0-.01c6.24-6.25 6.24-16.38-.01-22.62Z"/></svg>