<svg viewBox="0 0 24 24" xmlns="http://www.w3.org/2000/svg"><path d="M13.919 3.03V1.29h.63v-1.3H9.36v1.3h.63v1.74l-.01 0C5 3.98 1.4 8.34 1.4 13.41 1.4 19.25 6.13 23.97 11.96 23.97c5.84 0 10.567-4.74 10.567-10.567 0-5.186-3.73-9.486-8.65-10.397Zm-1.63 15.82v-.61h-.62v.6C8.9 18.68 6.71 16.46 6.56 13.7h.6v-.62h-.61l-.01 0c.17-2.75 2.35-4.93 5.1-5.09v.6h.62v-.61l-.01-.01c2.76.14 4.97 2.34 5.13 5.11h-.61v.61h.6l-.01 0c-.17 2.76-2.38 4.96-5.14 5.11Zm2.26-7.712l-.39-.39 -1.98 1.72 -.01-.01c-.11-.04-.21-.06-.32-.06 -.54 0-.98.44-.98.99 0 .54.43.99.97.99 .53 0 .97-.45.97-1l0-.01c0-.11-.02-.21-.05-.31Z"/></svg>